<svg xmlns="http://www.w3.org/2000/svg" xmlns:xlink="http://www.w3.org/1999/xlink" fill="none" version="1.1" width="17.435184478759766" height="17.513019561767578" viewBox="0 0 17.435184478759766 17.513019561767578"><g transform="matrix(1,0,0,-1,0,35.026039123535156)"><path d="M1.21204,33.80861956176758Q0.356482,32.91011956176758,0.162037,31.230419561767576Q-0.0324074,29.55081956176758,0.00648148,26.621089561767576L0.00648148,25.917969561767578Q-0.0324074,22.988279561767577,0.162037,21.30858956176758Q0.356482,19.62890956176758,1.21204,18.730469561767578Q2.10648,17.87109256176758,3.7787,17.675779561767577Q5.45093,17.48046756176758,8.36759,17.519530031767577L9.06759,17.519530031767577Q11.9843,17.48046756176758,13.6565,17.675779561767577Q15.3287,17.87109256176758,16.2231,18.730469561767578Q17.0787,19.62890956176758,17.2731,21.30858956176758Q17.4676,22.988279561767577,17.4287,25.917969561767578L17.4287,26.621089561767576Q17.4676,29.55081956176758,17.2731,31.230419561767576Q17.0787,32.91011956176758,16.2231,33.80861956176758Q15.3287,34.667919561767576,13.6565,34.86331956176758Q11.9843,35.05861956176758,9.06759,35.01951956176758L8.36759,35.01951956176758Q5.45093,35.05861956176758,3.7787,34.86331956176758Q2.10648,34.667919561767576,1.21204,33.80861956176758ZM2.96204,29.70701956176758L4.94537,29.70701956176758L2.96204,29.70701956176758L4.94537,29.70701956176758Q5.02315,27.207029561767577,5.8787,26.03515956176758Q6.69537,24.863279561767577,7.6287,24.667969561767578L7.6287,29.70701956176758L9.49537,29.70701956176758L9.49537,26.81640956176758Q10.3898,26.933589561767576,11.1676,27.753919561767578Q11.9454,28.574219561767578,12.2565,29.70701956176758L14.1231,29.70701956176758Q13.8898,28.574219561767578,13.2287,27.59761956176758Q12.5676,26.66015956176758,11.5954,26.074219561767578Q12.6843,25.527339561767576,13.462,24.550779561767577Q14.2398,23.613279561767577,14.5509,22.402339561767576L12.4898,22.402339561767576Q12.2176,23.457029561767577,11.4009,24.16015956176758Q10.5843,24.863279561767577,9.49537,25.019529561767577L9.49537,22.402339561767576L9.26204,22.402339561767576Q6.26759,22.44140956176758,4.67315,24.355469561767578Q3.03981,26.269529561767577,2.96204,29.70701956176758Z" fill="#9CA3AF" fill-opacity="1" style="mix-blend-mode:passthrough"/></g></svg>